HIERARCHY
ROOT hip
{
  OFFSET 0 0 0
  CHANNELS 6 Xposition Yposition Zposition Zrotation Yrotation Xrotation
  JOINT abdomen
  {
    OFFSET 0 20.6881 -0.73152
    CHANNELS 3 Zrotation Xrotation Yrotation
    JOINT chest
    {
      OFFSET 0 11.7043 -0.48768
      CHANNELS 3 Zrotation Xrotation Yrotation
      JOINT neck
      {
        OFFSET 0 22.1894 -2.19456
        CHANNELS 3 Zrotation Xrotation Yrotation
        JOINT head
        {
          OFFSET -0.24384 7.07133 1.2192
          CHANNELS 3 Zrotation Xrotation Yrotation
          JOINT leftEye
          {
            OFFSET 4.14528 8.04674 8.04672
            CHANNELS 3 Zrotation Xrotation Yrotation
            End Site
            {
              OFFSET 1 0 0
            }
          }
          JOINT rightEye
          {
            OFFSET -3.6576 8.04674 8.04672
            CHANNELS 3 Zrotation Xrotation Yrotation
            End Site
            {
              OFFSET 1 0 0
            }
          }
        }
      }
      JOINT rCollar
      {
        OFFSET -2.68224 19.2634 -4.8768
        CHANNELS 3 Zrotation Xrotation Yrotation
        JOINT rShldr
        {
          OFFSET -8.77824 -1.95073 1.46304
          CHANNELS 3 Zrotation Xrotation Yrotation
          JOINT rForeArm
          {
            OFFSET -28.1742 -1.7115 0.48768
            CHANNELS 3 Zrotation Xrotation Yrotation
            JOINT rHand
            {
              OFFSET -22.5879 0.773209 7.07136
              CHANNELS 3 Zrotation Xrotation Yrotation
              JOINT rThumb1
              {
                OFFSET -1.2192 -0.487915 3.41376
                CHANNELS 3 Zrotation Xrotation Yrotation
                JOINT rThumb2
                {
                  OFFSET -3.37035 -0.52449 3.41376
                  CHANNELS 3 Zrotation Xrotation Yrotation
                  End Site
                  {
                    OFFSET -1.78271 -1.18214 1.43049
                  }
                }
              }
              JOINT rIndex1
              {
                OFFSET -7.75947 0.938293 5.60832
                CHANNELS 3 Zrotation Xrotation Yrotation
                JOINT rIndex2
                {
                  OFFSET -2.54057 -0.884171 1.56538
                  CHANNELS 3 Zrotation Xrotation Yrotation
                  End Site
                  {
                    OFFSET -1.62519 -0.234802 1.16502
                  }
                }
              }
              JOINT rMid1
              {
                OFFSET -8.24714 1.18213 3.41376
                CHANNELS 3 Zrotation Xrotation Yrotation
                JOINT rMid2
                {
                  OFFSET -3.10165 -0.590103 1.0647
                  CHANNELS 3 Zrotation Xrotation Yrotation
                  End Site
                  {
                    OFFSET -2.48547 -0.328903 0.83742
                  }
                }
              }
              JOINT rRing1
              {
                OFFSET -8.82822 0.546677 1.51678
                CHANNELS 3 Zrotation Xrotation Yrotation
                JOINT rRing2
                {
                  OFFSET -2.60934 -0.819778 -0.0198488
                  CHANNELS 3 Zrotation Xrotation Yrotation
                  End Site
                  {
                    OFFSET -2.33842 -0.294052 0.168128
                  }
                }
              }
              JOINT rPinky1
              {
                OFFSET -8.27202 -0.0477905 -0.4584
                CHANNELS 3 Zrotation Xrotation Yrotation
                JOINT rPinky2
                {
                  OFFSET -1.82734 -0.647385 -0.700984
                  CHANNELS 3 Zrotation Xrotation Yrotation
                  End Site
                  {
                    OFFSET -1.69225 -0.51767 -0.607171
                  }
                }
              }
            }
          }
        }
      }
      JOINT lCollar
      {
        OFFSET 2.68224 19.2634 -4.8768
        CHANNELS 3 Zrotation Xrotation Yrotation
        JOINT lShldr
        {
          OFFSET 8.77824 -1.95073 1.46304
          CHANNELS 3 Zrotation Xrotation Yrotation
          JOINT lForeArm
          {
            OFFSET 28.1742 -1.7115 0.48768
            CHANNELS 3 Zrotation Xrotation Yrotation
            JOINT lHand
            {
              OFFSET 22.5879 0.773209 7.07136
              CHANNELS 3 Zrotation Xrotation Yrotation
              JOINT lThumb1
              {
                OFFSET 1.2192 -0.487915 3.41376
                CHANNELS 3 Zrotation Xrotation Yrotation
                JOINT lThumb2
                {
                  OFFSET 3.37035 -0.52449 3.41376
                  CHANNELS 3 Zrotation Xrotation Yrotation
                  End Site
                  {
                    OFFSET 1.78271 -1.18214 1.43049
                  }
                }
              }
              JOINT lIndex1
              {
                OFFSET 7.75947 0.938293 5.60832
                CHANNELS 3 Zrotation Xrotation Yrotation
                JOINT lIndex2
                {
                  OFFSET 2.54057 -0.884171 1.56538
                  CHANNELS 3 Zrotation Xrotation Yrotation
                  End Site
                  {
                    OFFSET 1.62519 -0.234802 1.16502
                  }
                }
              }
              JOINT lMid1
              {
                OFFSET 8.24714 1.18213 3.41376
                CHANNELS 3 Zrotation Xrotation Yrotation
                JOINT lMid2
                {
                  OFFSET 3.10165 -0.590103 1.0647
                  CHANNELS 3 Zrotation Xrotation Yrotation
                  End Site
                  {
                    OFFSET 2.48547 -0.328903 0.83742
                  }
                }
              }
              JOINT lRing1
              {
                OFFSET 8.82822 0.546677 1.51678
                CHANNELS 3 Zrotation Xrotation Yrotation
                JOINT lRing2
                {
                  OFFSET 2.60934 -0.819778 -0.0198488
                  CHANNELS 3 Zrotation Xrotation Yrotation
                  End Site
                  {
                    OFFSET 2.33842 -0.294052 0.168128
                  }
                }
              }
              JOINT lPinky1
              {
                OFFSET 8.27202 -0.0477905 -0.4584
                CHANNELS 3 Zrotation Xrotation Yrotation
                JOINT lPinky2
                {
                  OFFSET 1.82734 -0.647385 -0.700984
                  CHANNELS 3 Zrotation Xrotation Yrotation
                  End Site
                  {
                    OFFSET 1.69225 -0.51767 -0.607171
                  }
                }
              }
            }
          }
        }
      }
    }
  }
  JOINT rButtock
  {
    OFFSET -8.77824 4.35084 1.2192
    CHANNELS 3 Zrotation Xrotation Yrotation
    JOINT rThigh
    {
      OFFSET 0 -1.70687 -2.19456
      CHANNELS 3 Zrotation Xrotation Yrotation
      JOINT rShin
      {
        OFFSET 0 -36.8199 0.73152
        CHANNELS 3 Zrotation Xrotation Yrotation
        JOINT rFoot
        {
          OFFSET 0.73152 -45.1104 -5.12064
          CHANNELS 3 Zrotation Xrotation Yrotation
          End Site
          {
            OFFSET -1.1221 -3.69964 12.103
          }
        }
      }
    }
  }
  JOINT lButtock
  {
    OFFSET 8.77824 4.35084 1.2192
    CHANNELS 3 Zrotation Xrotation Yrotation
    JOINT lThigh
    {
      OFFSET 0 -1.70687 -2.19456
      CHANNELS 3 Zrotation Xrotation Yrotation
      JOINT lShin
      {
        OFFSET 0 -36.8199 0.73152
        CHANNELS 3 Zrotation Xrotation Yrotation
        JOINT lFoot
        {
          OFFSET -0.73152 -45.1104 -5.12064
          CHANNELS 3 Zrotation Xrotation Yrotation
          End Site
          {
            OFFSET 1.1221 -3.69964 12.103
          }
        }
      }
    }
  }
}
MOTION
Frames:	4
Frame Time:	0.03333
0.07974011823534966 26.887059211730957 -0.05927449092268944 -2.6402015686035156 0.00763167766854167 6.732707977294922 -3.405766248703003 13.77678108215332 4.09965705871582 3.226954936981201 -9.740095138549805 1.1380627155303955 -5.4721808433532715 14.496170043945312 -4.944857597351074 9.134675979614258 -24.784915924072266 -6.136086940765381 0.11352407932281494 0.09956536442041397 0.012430265545845032 0.02245483733713627 0.028344564139842987 0.03959893807768822 0.01597803458571434 -0.0019663874991238117 0.0627971813082695 52.91209411621094 38.05028533935547 9.19275951385498 -28.29096794128418 -32.30258560180664 70.4888916015625 -0.023892275989055634 1.249505639076233 0.05636744201183319 -0.0683860257267952 -0.06796742975711823 -0.012846901081502438 0.009072888642549515 0.09193305671215057 -0.010872278362512589 -0.020680304616689682 0.009642881341278553 -0.04965747892856598 7.69685173034668 5.528253555297852 0.3810383379459381 -0.013027383014559746 -0.06211056560277939 -0.08991475403308868 2.895305871963501 0.9342337250709534 0.025246532633900642 -0.07388629019260406 -0.08641383051872253 -0.03138452768325806 10.405302047729492 0.7752452492713928 -0.059211090207099915 -0.03135337308049202 -0.012202237732708454 0.039693113416433334 2.1358838081359863 -0.7104445099830627 -0.2457011342048645 -0.033066973090171814 -0.01848514750599861 0.012374481186270714 -57.641380310058594 38.19046401977539 -21.818607330322266 28.15233612060547 -33.87164306640625 -73.6656494140625 0.35038045048713684 -16.03633689880371 2.3940935134887695 -0.03826981410384178 -0.00940633937716484 -0.02360357716679573 -0.03261151909828186 0.03806990757584572 -0.02996806986629963 0.013252669014036655 -0.07827270030975342 -0.014553830958902836 -7.733814716339111 5.438806533813477 -0.3924644887447357 -0.07136610150337219 -0.02142828330397606 -0.04712492972612381 -2.9043002128601074 0.9396193027496338 -0.0424368791282177 -0.04806800186634064 -0.0244362223893404 -0.05275273695588112 -10.258773803710938 0.6939190626144409 -0.019702108576893806 -0.07492021471261978 -0.06739143282175064 -0.03893936052918434 -2.1767871379852295 -0.7475224733352661 0.18364767730236053 -0.04731026291847229 -0.05817510187625885 -0.01572754979133606 -28.868587493896484 -44.88491439819336 -23.885534286499023 -1.8420804738998413 67.52666473388672 2.3663504123687744 -3.8809237480163574 -10.011136054992676 -10.180726051330566 -0.11223620176315308 -0.04282422363758087 0.03878216817975044 31.894847869873047 -44.76507568359375 26.289844512939453 2.2072947025299072 70.25579833984375 -3.0884501934051514 4.192070484161377 -11.597606658935547 14.716573715209961
0.061762891709804535 44.53825056552887 -0.05550645291805267 0.2670167088508606 5.2926506996154785 7.269305229187012 -3.550755500793457 13.746241569519043 3.6179471015930176 3.0987486839294434 -9.305044174194336 1.3071211576461792 -5.638167858123779 14.689009666442871 -5.039381504058838 9.561931610107422 -25.815839767456055 -7.83194637298584 0.05367054417729378 0.19474585354328156 -0.01221099216490984 0.10923700779676437 -0.04682551324367523 -0.05421141907572746 0.038536131381988525 -0.11487185209989548 0.0667225569486618 49.75605010986328 40.50514221191406 11.608415603637695 -28.050338745117188 -32.0001106262207 68.93476104736328 0.19978003203868866 0.41919630765914917 0.35442134737968445 -0.053794294595718384 0.027341395616531372 0.034006986767053604 -0.12661239504814148 0.036192361265420914 -0.004831991624087095 -0.04971474036574364 -0.08935985714197159 -0.0769958347082138 7.78147029876709 5.516325950622559 0.37552395462989807 -0.046639975160360336 0.07594538480043411 0.013509592972695827 2.998169422149658 0.8599757552146912 0.12290764600038528 -0.0031008583027869463 0.08221405744552612 -0.05933333933353424 10.400912284851074 0.6486864686012268 0.01374765019863844 0.0384809784591198 -0.003960846923291683 0.05084332823753357 2.0507075786590576 -0.7261577844619751 -0.182363823056221 0.05667584016919136 0.12503954768180847 -0.13402684032917023 -60.84733200073242 38.30754089355469 -18.444076538085938 29.718141555786133 -33.10032272338867 -72.07897186279297 0.3737294673919678 -17.79104995727539 2.0054049491882324 -0.07396717369556427 0.08926312625408173 -0.025549104437232018 0.027293125167489052 0.006198845338076353 -0.05691662058234215 0.02094297483563423 -0.1188494935631752 0.04705497995018959 -7.676682472229004 5.422371864318848 -0.3424904942512512 0.016058005392551422 0.08617567270994186 -0.055527426302433014 -2.8822970390319824 0.9989837408065796 -0.09819434583187103 0.0854649767279625 0.10107647627592087 0.027904774993658066 -10.391583442687988 0.8300079107284546 0.051110219210386276 -0.10217023640871048 0.054825954139232635 0.026227351278066635 -2.2245571613311768 -0.7570961713790894 0.21375428140163422 0.010003874078392982 0.14335571229457855 0.01954977959394455 -32.093910217285156 -47.119590759277344 -24.765382766723633 -1.379040002822876 66.41864013671875 2.3519856929779053 -4.330758094787598 -8.682567596435547 -9.97380542755127 -0.0832752138376236 -0.08311354368925095 -0.004402377177029848 26.945560455322266 -46.20817565917969 23.086881637573242 1.7492611408233643 69.63261413574219 -3.1978070735931396 4.698681354522705 -12.68808650970459 17.82709503173828
0.07456419989466667 59.47199463844299 0.0657995231449604 83.50020599365234 48.01200485229492 80.41888427734375 -7.757894515991211 14.361631393432617 6.471768379211426 0.6870501041412354 -9.522730827331543 1.028127908706665 -2.1027188301086426 12.0779390335083 2.792541980743408 -4.689673900604248 -20.68967056274414 14.371999740600586 0.08733557164669037 0.05002925172448158 0.12187035381793976 -0.0037511747796088457 -0.14140728116035461 0.019967881962656975 -0.1393224447965622 -0.09039098769426346 -0.06499166786670685 20.42166519165039 60.31814193725586 25.041593551635742 -28.683887481689453 -36.66722869873047 76.48735046386719 0.1748608946800232 3.9381563663482666 -0.368655800819397 0.03047149069607258 -0.14262893795967102 0.05712078884243965 0.07110704481601715 -0.12401521950960159 0.018166689202189445 -0.09315316379070282 -0.03174123167991638 0.0008414671756327152 7.741945743560791 5.481243133544922 0.4983573257923126 0.05421416088938713 -0.03216254711151123 0.007863231003284454 2.9477293491363525 0.8426092267036438 0.12502026557922363 -0.14611466228961945 -0.11299855262041092 0.020511282607913017 10.40975284576416 0.8040688037872314 -0.12501488626003265 -0.012260151095688343 -0.17073649168014526 0.07940390706062317 2.3090908527374268 -0.6830631494522095 -0.35356104373931885 -0.01945490948855877 0.0785503014922142 0.10128998756408691 -64.55923461914062 -22.42734146118164 8.476365089416504 18.227487564086914 -10.308220863342285 -34.701168060302734 -0.15062618255615234 -6.7476348876953125 0.6204770803451538 -0.011317435652017593 -0.1350078135728836 0.1175975576043129 0.08104046434164047 -0.026365308091044426 -0.05331522226333618 0.11940561980009079 -0.02961532399058342 -0.02295181341469288 -7.737142086029053 5.479563236236572 -0.41795971989631653 0.012598649598658085 0.05943315103650093 0.10187379270792007 -2.805495500564575 1.0790971517562866 -0.07428088784217834 -0.11016027629375458 0.0895310565829277 -0.15200023353099823 -10.147689819335938 0.5969190001487732 -0.05284431204199791 -0.04263412207365036 -0.08463919907808304 0.09480436146259308 -2.193469524383545 -0.9465129375457764 0.07546185702085495 -0.023008011281490326 0.10931161791086197 0.0234279353171587 -35.76267623901367 -13.204307556152344 4.5675368309021 -0.8967756628990173 34.084903717041016 1.4719958305358887 -2.431802749633789 2.238485097885132 -21.655803680419922 0.1336485743522644 -0.020745117217302322 0.10352637618780136 53.10759735107422 -24.399946212768555 20.480514526367188 1.7600152492523193 53.24412155151367 -2.553485631942749 -2.2731809616088867 5.363596439361572 19.48339080810547
0.09065140038728714 69.42757964134216 0.30701160430908203 87.66761016845703 50.62565231323242 81.40545654296875 -10.28258991241455 18.94771957397461 8.196752548217773 -1.37355637550354 -9.777925491333008 1.5210601091384888 -0.15061505138874054 9.992799758911133 7.423069953918457 -11.56419563293457 -20.840557098388672 20.039222717285156 -0.03333553299307823 0.11793582886457443 -0.03093540295958519 0.009365293197333813 -0.20252647995948792 -0.04461538791656494 -0.014130651950836182 0.03340193256735802 -0.05195744335651398 8.781160354614258 59.62287902832031 36.55784225463867 -27.855703353881836 -39.5705680847168 81.65856170654297 0.37946629524230957 4.1749444007873535 0.6157318353652954 -0.04274911433458328 -0.30549123883247375 0.1175299808382988 0.0660603940486908 0.006640258245170116 0.053817663341760635 -0.1986197829246521 -0.012673462741076946 -0.1970454901456833 7.790429592132568 5.409515857696533 0.4850742220878601 0.06951406598091125 -0.12537536025047302 -0.10085324943065643 2.969865083694458 0.9226070046424866 0.08601836860179901 0.0333428755402565 -0.025073830038309097 -0.11595814675092697 10.360212326049805 0.6577248573303223 -0.039157185703516006 0.19276770949363708 -0.087374247610569 0.06879917532205582 2.241058111190796 -0.7675566673278809 -0.15462380647659302 0.10416258871555328 0.2217353880405426 -0.02203732170164585 -64.06108093261719 -27.49277687072754 9.977216720581055 13.5787935256958 -5.206747055053711 -23.165884017944336 0.16577471792697906 -13.80308723449707 1.4372812509536743 -0.020947717130184174 -0.08484623581171036 0.07302051782608032 0.18282659351825714 -0.026984555646777153 -0.123008593916893 0.017418554052710533 -0.138346329331398 -0.05997933819890022 -7.649868011474609 5.325026035308838 -0.3645961284637451 0.05605907365679741 0.04503408446907997 0.055022165179252625 -2.7939343452453613 0.9720770716667175 -0.13880516588687897 0.028222162276506424 0.2221774458885193 -0.3211081326007843 -10.275928497314453 0.7108869552612305 0.021173452958464622 -0.08643576502799988 -0.14747314155101776 0.06943096965551376 -2.19974684715271 -0.8061845898628235 0.16531212627887726 -0.011150432750582695 0.1465783268213272 -0.00022865002392791212 -36.94569396972656 -9.882831573486328 7.741208076477051 -0.2617691159248352 16.882871627807617 1.142664909362793 -2.0560595989227295 2.887634754180908 -23.896137237548828 0.049626950174570084 -0.09728695452213287 0.12535656988620758 69.40506744384766 -28.97443389892578 31.91693687438965 1.6232166290283203 52.69298553466797 -3.376622200012207 -2.3981025218963623 7.955399036407471 19.050281524658203
